<svg width="36" height="35" viewBox="0 0 36 35" fill="none" xmlns="http://www.w3.org/2000/svg">
<rect x="0.953674" y="0.271484" width="34.962" height="34.023" rx="7.3179" fill="#39289F"/>
<path fill-rule="evenodd" clip-rule="evenodd" d="M13.7932 9.84026C13.2946 9.34867 13.2946 8.55165 13.7932 8.06006L17.5046 4.40141C18.0033 3.90982 18.8118 3.90982 19.3104 4.40141L23.0218 8.06006C23.5205 8.55165 23.5205 9.34867 23.0218 9.84026L19.3104 13.4989C18.8118 13.9905 18.0033 13.9905 17.5046 13.4989L13.7932 9.84026ZM17.727 17.7392C17.4777 17.4934 17.4777 17.0949 17.727 16.8491L17.9735 16.6061C18.2228 16.3603 18.6271 16.3603 18.8764 16.6061L19.1229 16.8491C19.3722 17.0949 19.3722 17.4934 19.1229 17.7392L18.8764 17.9822C18.6271 18.228 18.2228 18.228 17.9735 17.9822L17.727 17.7392ZM22.552 16.4229C22.0534 16.9145 22.0534 17.7115 22.552 18.2031L26.2634 21.8617C26.7621 22.3533 27.5706 22.3533 28.0692 21.8617L31.7806 18.2031C32.2793 17.7115 32.2793 16.9145 31.7806 16.4229L28.0692 12.7642C27.5706 12.2726 26.7621 12.2726 26.2634 12.7642L22.552 16.4229ZM5.08866 18.1936C4.58999 17.7021 4.58999 16.905 5.08866 16.4134L8.80003 12.7548C9.29871 12.2632 10.1072 12.2632 10.6059 12.7548L14.3173 16.4134C14.8159 16.905 14.8159 17.7021 14.3173 18.1936L10.6059 21.8523C10.1072 22.3439 9.29871 22.3439 8.80003 21.8523L5.08866 18.1936ZM13.7932 24.7261C13.2946 25.2177 13.2946 26.0147 13.7932 26.5063L17.5046 30.165C18.0033 30.6566 18.8118 30.6566 19.3104 30.165L23.0218 26.5063C23.5205 26.0147 23.5205 25.2177 23.0218 24.7261L19.3104 21.0675C18.8118 20.5759 18.0033 20.5759 17.5046 21.0675L13.7932 24.7261Z" fill="white"/>
</svg>
