<svg width="30" height="30" viewBox="0 0 30 30" fill="none" xmlns="http://www.w3.org/2000/svg">
<path d="M20.3368 2.58838C24.1043 2.58838 26.2021 4.75936 26.2021 8.47929V21.0783C26.2021 24.8592 24.1043 26.9814 20.3368 26.9814H10.115C6.40723 26.9814 4.24845 24.8592 4.24845 21.0783V8.47929C4.24845 4.75936 6.40723 2.58838 10.115 2.58838H20.3368ZM10.4443 19.3464C10.0784 19.3098 9.72468 19.4805 9.52953 19.7976C9.33439 20.1026 9.33439 20.505 9.52953 20.8221C9.72468 21.1271 10.0784 21.31 10.4443 21.2612H20.0063C20.493 21.2124 20.8601 20.7965 20.8601 20.3099C20.8601 19.8098 20.493 19.3952 20.0063 19.3464H10.4443ZM20.0063 13.7835H10.4443C9.9186 13.7835 9.49294 14.2116 9.49294 14.7361C9.49294 15.2605 9.9186 15.6874 10.4443 15.6874H20.0063C20.5308 15.6874 20.9577 15.2605 20.9577 14.7361C20.9577 14.2116 20.5308 13.7835 20.0063 13.7835ZM14.0898 8.25975H10.4443V8.27195C9.9186 8.27195 9.49294 8.69883 9.49294 9.22328C9.49294 9.74772 9.9186 10.1746 10.4443 10.1746H14.0898C14.6155 10.1746 15.0423 9.74772 15.0423 9.20986C15.0423 8.68663 14.6155 8.25975 14.0898 8.25975Z" fill="#5D7285"/>
</svg>
