<svg width="30" height="30" viewBox="0 0 30 30" fill="none" xmlns="http://www.w3.org/2000/svg">
<path d="M11.7307 25.8554V22.126C11.7307 21.1741 12.5081 20.4023 13.4671 20.4023H16.9726C17.4331 20.4023 17.8747 20.5839 18.2004 20.9072C18.526 21.2304 18.7089 21.6689 18.7089 22.126V25.8554C18.706 26.2512 18.8624 26.6318 19.1433 26.9126C19.4242 27.1935 19.8064 27.3515 20.2051 27.3515H22.5966C23.7136 27.3544 24.7858 26.9159 25.5767 26.1328C26.3675 25.3498 26.812 24.2865 26.812 23.1776V12.5533C26.812 11.6576 26.412 10.808 25.7199 10.2333L17.5841 3.78282C16.1689 2.65183 14.1412 2.68835 12.7682 3.86955L4.81804 10.2333C4.09324 10.791 3.66003 11.6432 3.63862 12.5533V23.1668C3.63862 25.4779 5.52589 27.3515 7.85394 27.3515H10.1909C11.019 27.3515 11.692 26.6883 11.698 25.8662L11.7307 25.8554Z" fill="#5D7285"/>
</svg>
