<svg width="30" height="30" viewBox="0 0 30 30" fill="none" xmlns="http://www.w3.org/2000/svg">
<path d="M14.0171 2.43896C17.045 2.43896 19.5144 4.86607 19.5144 7.85421V13.6963H12.0689C11.5353 13.6963 11.1134 14.111 11.1134 14.6355C11.1134 15.1477 11.5353 15.5746 12.0689 15.5746H19.5144V21.4045C19.5144 24.3927 17.045 26.832 13.9923 26.832H7.949C4.90874 26.832 2.4393 24.4049 2.4393 21.4167V7.86641C2.4393 4.86607 4.92115 2.43896 7.96141 2.43896H14.0171ZM22.6126 10.4279C22.9784 10.0498 23.5761 10.0498 23.942 10.4157L27.5033 13.9649C27.6863 14.1478 27.7839 14.3796 27.7839 14.6357C27.7839 14.8796 27.6863 15.1236 27.5033 15.2943L23.942 18.8435C23.759 19.0264 23.5151 19.124 23.2834 19.124C23.0394 19.124 22.7955 19.0264 22.6126 18.8435C22.2467 18.4776 22.2467 17.88 22.6126 17.5141L24.564 15.5748H19.5146V13.6966H24.564L22.6126 11.7573C22.2467 11.3914 22.2467 10.7938 22.6126 10.4279Z" fill="#5D7285"/>
</svg>
