<svg width="30" height="31" viewBox="0 0 30 31" fill="none" xmlns="http://www.w3.org/2000/svg">
<path d="M15.2313 3.21777C18.4999 3.21777 21.1871 5.78625 21.3235 9.04078H21.2917C21.2955 9.13538 21.2773 9.22958 21.2386 9.31602H21.429C22.9133 9.31602 24.4676 10.3448 25.0908 12.8284L25.1586 13.1214L26.0964 20.6767C26.7712 25.4956 24.1348 27.5221 20.5383 27.6079L20.2972 27.6108H10.1863C6.53136 27.6108 3.7149 26.2789 4.33417 21.0046L4.37639 20.6767L5.32496 13.1214C5.7927 10.4469 7.36296 9.39194 8.87595 9.32L9.04376 9.31602H9.13911C9.12303 9.22497 9.12303 9.13183 9.13911 9.04078C9.27551 5.78625 11.9627 3.21777 15.2313 3.21777ZM11.6846 13.3766C11.0893 13.3766 10.6067 13.8733 10.6067 14.486C10.6067 15.0988 11.0893 15.5955 11.6846 15.5955C12.28 15.5955 12.7626 15.0988 12.7626 14.486L12.7542 14.3469C12.6876 13.7998 12.2342 13.3766 11.6846 13.3766ZM18.745 13.3766C18.1497 13.3766 17.6671 13.8733 17.6671 14.486C17.6671 15.0988 18.1497 15.5955 18.745 15.5955C19.3403 15.5955 19.8229 15.0988 19.8229 14.486C19.8229 13.8733 19.3403 13.3766 18.745 13.3766ZM15.1835 4.80623C12.8368 4.80623 10.9344 6.7021 10.9344 9.04078C10.9505 9.13183 10.9505 9.22497 10.9344 9.31602H19.4858C19.4518 9.22814 19.4339 9.13494 19.4327 9.04078C19.4327 6.7021 17.5303 4.80623 15.1835 4.80623Z" fill="#5D7285"/>
</svg>
