<svg width="30" height="30" viewBox="0 0 30 30" fill="none" xmlns="http://www.w3.org/2000/svg">
<path d="M15.1631 18.0553C19.348 18.0553 22.9213 18.7188 22.9213 21.3737C22.9213 24.0275 19.3709 24.7151 15.1631 24.7151C10.9783 24.7151 7.40501 24.0516 7.40501 21.3978C7.40501 18.7429 10.9554 18.0553 15.1631 18.0553ZM21.8542 16.4567C23.4541 16.427 25.1741 16.6467 25.8097 16.8027C27.1562 17.0674 28.0419 17.6078 28.4088 18.3932C28.719 19.038 28.719 19.786 28.4088 20.4297C27.8475 21.6478 26.0379 22.0389 25.3346 22.1399C25.1894 22.1619 25.0725 22.0356 25.0878 21.8895C25.4471 18.514 22.5891 16.9136 21.8498 16.5457C21.8181 16.5292 21.8116 16.5039 21.8149 16.4885C21.8171 16.4776 21.8302 16.46 21.8542 16.4567ZM8.29596 16.4544L8.59723 16.4571C8.62126 16.4604 8.63327 16.478 8.63545 16.4879C8.63873 16.5044 8.63218 16.5285 8.6016 16.5461C7.86117 16.9141 5.0032 18.5145 5.3625 21.8888C5.37778 22.036 5.26202 22.1612 5.11678 22.1404C4.41348 22.0393 2.60391 21.6483 2.04258 20.4301C1.73134 19.7854 1.73134 19.0384 2.04258 18.3936C2.40952 17.6083 3.2941 17.0678 4.64063 16.802C5.27731 16.6472 6.99624 16.4275 8.59723 16.4571L8.29596 16.4544ZM15.1631 5.20068C18.0124 5.20068 20.297 7.49639 20.297 10.3633C20.297 13.2291 18.0124 15.527 15.1631 15.527C12.3139 15.527 10.0293 13.2291 10.0293 10.3633C10.0293 7.49639 12.3139 5.20068 15.1631 5.20068ZM22.1327 6.06163C24.8847 6.06163 27.0459 8.66599 26.3099 11.5669C25.813 13.5199 24.0143 14.8172 22.0103 14.7645C21.8094 14.759 21.6117 14.7403 21.4206 14.7073C21.2819 14.6832 21.212 14.5261 21.2907 14.4097C22.0551 13.2783 22.4909 11.9173 22.4909 10.4564C22.4909 8.93181 22.0147 7.51045 21.188 6.34502C21.1618 6.30877 21.1421 6.25276 21.1684 6.21101C21.1902 6.17696 21.2306 6.15939 21.2688 6.1506C21.5473 6.09348 21.8334 6.06163 22.1327 6.06163ZM8.31711 6.06152C8.61634 6.06152 8.90247 6.09337 9.18204 6.15049C9.21917 6.15928 9.26067 6.17795 9.28251 6.21091C9.30763 6.25265 9.28906 6.30866 9.26285 6.34491C8.43615 7.51034 7.96 8.9317 7.96 10.4563C7.96 11.9172 8.39574 13.2782 9.1602 14.4095C9.23883 14.526 9.16893 14.6831 9.03024 14.7072C8.83803 14.7413 8.64146 14.7588 8.44052 14.7643C6.43655 14.8171 4.6379 13.5198 4.14101 11.5668C3.40385 8.66589 5.56508 6.06152 8.31711 6.06152Z" fill="#5D7285"/>
</svg>
